<svg xmlns="http://www.w3.org/2000/svg" viewBox="0 0 640 360">
<defs>
  <linearGradient id="body" x1="0" y1="0" x2="1" y2="1">
    <stop stop-color="#dff5ff"/><stop offset=".28" stop-color="#8ec7df"/><stop offset=".58" stop-color="#5b9fbe"/><stop offset=".82" stop-color="#e9f5f5"/><stop offset="1" stop-color="#f7fbf7"/>
  </linearGradient>
  <linearGradient id="top" x1="0" y1="0" x2="1" y2="0"><stop stop-color="#164d68"/><stop offset=".55" stop-color="#2d7b97"/><stop offset="1" stop-color="#6cb2c8"/></linearGradient>
  <linearGradient id="fin" x1="0" y1="0" x2="1" y2="1"><stop stop-color="#5ca8c1"/><stop offset="1" stop-color="#1d607e"/></linearGradient>
  <filter id="shadow" x="-20%" y="-20%" width="140%" height="140%"><feDropShadow dx="0" dy="8" stdDeviation="8" flood-color="#021923" flood-opacity=".38"/></filter>
  <pattern id="scales" width="16" height="12" patternUnits="userSpaceOnUse"><path d="M0 6 Q8 0 16 6 Q8 12 0 6" fill="none" stroke="#ffffff" stroke-opacity=".28" stroke-width="1.2"/></pattern>
</defs>
<g filter="url(#shadow)" transform="translate(10 12)">
  <path d="M56 194 C90 124 196 90 352 92 C448 94 519 128 559 178 C514 226 443 260 343 270 C194 282 88 255 56 194Z" fill="url(#body)" stroke="#17455e" stroke-width="7"/>
  <path d="M120 136 C198 95 360 91 500 131" fill="none" stroke="url(#top)" stroke-width="30" stroke-linecap="round" opacity=".86"/>
  <path d="M188 104 C230 60 286 46 348 58 L333 97 L288 69 L273 105 L236 79 L220 114Z" fill="url(#fin)" stroke="#17455e" stroke-width="6"/>
  <path d="M534 170 L616 109 L603 178 L620 244 L536 217Z" fill="url(#fin)" stroke="#17455e" stroke-width="7"/>
  <path d="M286 248 L361 312 L375 262Z" fill="url(#fin)" stroke="#17455e" stroke-width="6"/>
  <path d="M326 132 L436 116 L389 169Z" fill="#7fc5d7" stroke="#245871" stroke-width="5"/>
  <path d="M112 124 H478 V265 H112Z" fill="url(#scales)"/>
  <path d="M98 194 C120 148 168 121 230 106 C204 146 201 218 231 255 C167 252 120 231 98 194Z" fill="#eef8f7" fill-opacity=".68"/>
  <path d="M115 154 C226 127 368 131 492 160" fill="none" stroke="#f1ca45" stroke-width="7" stroke-linecap="round" opacity=".82"/>
  <ellipse cx="116" cy="183" rx="27" ry="30" fill="#f7f2cf" stroke="#17455e" stroke-width="6"/>
  <circle cx="119" cy="183" r="14" fill="#d7a51f"/><circle cx="122" cy="182" r="8" fill="#061722"/><circle cx="126" cy="176" r="3" fill="#fff"/>
  <path d="M55 199 Q88 177 120 198 Q87 222 54 214" fill="#f3ece3" stroke="#17455e" stroke-width="6"/>
  <ellipse cx="216" cy="129" rx="72" ry="27" fill="#ffffff" opacity=".18" transform="rotate(-12 216 129)"/>
</g></svg>