<svg xmlns="http://www.w3.org/2000/svg" viewBox="0 0 220 170"><g stroke="#173248" stroke-width="5" stroke-linejoin="round" stroke-linecap="round"><ellipse cx="110" cy="154" rx="78" ry="9" fill="#173248" opacity=".12" stroke="none"/><rect x="46" y="67" width="128" height="70" rx="14" fill="#fff5d9"/><path d="M34 72 110 28 186 72Z" fill="#ff765a"/><rect x="62" y="84" width="96" height="17" rx="6" fill="#dff5ff"/><path d="M62 84h96M78 84v17M102 84v17M126 84v17M150 84v17" fill="none"/><rect x="62" y="108" width="40" height="24" rx="5" fill="#9ed7ed"/><rect x="118" y="108" width="40" height="24" rx="5" fill="#e3b86c"/><path d="M70 119c8-9 17-9 25 0-8 9-17 9-25 0Z" fill="#5bb5d8"/><circle cx="91" cy="117" r="2" fill="#173248" stroke="none"/><circle cx="110" cy="53" r="15" fill="#fff"/><path d="M99 53c8-9 16-9 24 0-8 9-16 9-24 0Z" fill="#2f9ed4"/></g></svg>