<svg xmlns="http://www.w3.org/2000/svg" viewBox="0 0 390 844"><defs><linearGradient id="sky" x1="0" y1="0" x2="0" y2="1"><stop offset="0" stop-color="#b9eaff"/><stop offset="1" stop-color="#eefbff"/></linearGradient><linearGradient id="sea" x1="0" y1="0" x2="0" y2="1"><stop offset="0" stop-color="#62ccef"/><stop offset="1" stop-color="#176eaa"/></linearGradient></defs><rect width="390" height="844" fill="url(#sky)"/><circle cx="326" cy="64" r="28" fill="#ffd95a"/><g fill="#ffffff" opacity=".9"><ellipse cx="72" cy="76" rx="42" ry="13"/><ellipse cx="97" cy="70" rx="26" ry="12"/><ellipse cx="234" cy="105" rx="36" ry="11"/></g><path d="M0 172 C72 148 134 154 204 177 C278 201 332 179 390 155 L390 234 L0 234Z" fill="#83c99f"/><g stroke="#173248" stroke-width="3" stroke-linejoin="round"><path d="M14 189h58v42H14z" fill="#fff2ca"/><path d="M9 189l34-24 34 24z" fill="#ff765a"/><path d="M84 180h52v51H84z" fill="#f8fdff"/><path d="M80 180l30-21 30 21z" fill="#5b9ec0"/><path d="M294 184h63v47h-63z" fill="#fff2ca"/><path d="M288 184l37-24 38 24z" fill="#e98a5f"/></g><rect y="224" width="390" height="486" fill="url(#sea)"/><g fill="none" stroke="#ffffff" opacity=".35" stroke-width="4"><path d="M12 294c74-12 135 13 211 0 64-11 111-4 157 1"/><path d="M22 386c62-13 126 11 190 1 65-10 113-3 158 4"/><path d="M8 505c88-14 149 15 233 1 62-10 105-5 141 2"/><path d="M25 626c78-12 136 11 205 0 59-9 101-4 145 3"/></g><g stroke="#173248" stroke-width="3" stroke-linecap="round"><path d="M42 248v74M348 244v72"/><path d="M42 248h48M348 244h-45"/></g><path d="M255 345q32-20 70 0l-10 23h-50z" fill="#ffffff" stroke="#173248" stroke-width="3"/><path d="M269 331h29l19 14h-58z" fill="#ff765a" stroke="#173248" stroke-width="3"/><path d="M0 705h390v139H0z" fill="#d8b77a"/><path d="M0 705c92-18 168 8 257-5 53-8 93-7 133-2" fill="none" stroke="#ffffff" stroke-width="6" opacity=".6"/><g fill="#8a7451" opacity=".45"><ellipse cx="62" cy="770" rx="22" ry="8"/><ellipse cx="320" cy="792" rx="26" ry="9"/></g><g fill="none" stroke="#173248" stroke-width="2" opacity=".45"><path d="M44 125q10-10 20 0q10-10 20 0"/><path d="M250 138q9-9 18 0q9-9 18 0"/></g></svg>