<svg xmlns="http://www.w3.org/2000/svg" width="96" height="96" viewBox="0 0 96 96"><defs><filter id="s" x="-30%" y="-30%" width="160%" height="160%"><feGaussianBlur stdDeviation="2"/></filter><linearGradient id="b" x1="0" y1="0" x2="1" y2="1"><stop stop-color="#e9fbff"/><stop offset=".55" stop-color="#5fcde9"/><stop offset="1" stop-color="#1684ba"/></linearGradient></defs><ellipse cx="49" cy="60" rx="26" ry="8" fill="#0b5274" opacity=".17" filter="url(#s)"/><g transform="rotate(-18 48 48)"><path d="M19 49c11-13 31-18 52-8l8 7-8 7c-21 10-41 5-52-6Z" fill="url(#b)" stroke="#123e58" stroke-width="3" stroke-linejoin="round"/><circle cx="66" cy="45" r="3" fill="#173248"/><path d="M27 45 16 36l2 15Z" fill="#ffb24d" stroke="#123e58" stroke-width="2"/><path d="M47 39c2 6 1 11-2 16" fill="none" stroke="#fff" stroke-width="3" stroke-linecap="round" opacity=".75"/><path d="M55 55c0 7-3 10-6 13m16-16c2 6 1 10-2 14" fill="none" stroke="#173248" stroke-width="2" stroke-linecap="round"/></g></svg>