<svg xmlns="http://www.w3.org/2000/svg" viewBox="0 0 110 170"><g stroke="#173248" stroke-width="4" stroke-linejoin="round" stroke-linecap="round"><ellipse cx="55" cy="159" rx="34" ry="7" fill="#173248" opacity=".12" stroke="none"/><circle cx="53" cy="43" r="24" fill="#f2c7a5"/><path d="M31 39q6-27 27-25 17 2 24 20-12-5-22-4-12 1-29 9Z" fill="#334d63"/><path d="M31 30q14-15 35-10l9 9q-24-2-44 1Z" fill="#5bb5d8"/><circle cx="45" cy="44" r="2" fill="#173248" stroke="none"/><circle cx="62" cy="43" r="2" fill="#173248" stroke="none"/><path d="M47 54q7 6 14 0" fill="none"/><path d="M28 72q25-12 51 0l7 69H22Z" fill="#ffefcc"/><path d="M34 79l18 20 22-20" fill="#5bb5d8"/><path d="M18 88q12-13 22-4l-9 25q-10 9-18-1Z" fill="#f2c7a5"/><path d="M90 86q-10-12-20-3l7 26q9 10 18 1Z" fill="#f2c7a5"/><path d="M78 86q9-21 11-38" fill="none"/><path d="M88 48q5-18 10-29" fill="none"/><circle cx="99" cy="16" r="3" fill="#ff765a"/></g></svg>